<?xml version="1.0" standalone="no"?>
<!DOCTYPE svg PUBLIC "-//W3C//DTD SVG 20010904//EN"
 "http://www.w3.org/TR/2001/REC-SVG-20010904/DTD/svg10.dtd">
<svg version="1.0" xmlns="http://www.w3.org/2000/svg"
 width="1011.000000pt" height="1011.000000pt" viewBox="0 0 1011.000000 1011.000000"
 preserveAspectRatio="xMidYMid meet">

<g transform="translate(0.000000,1011.000000) scale(0.100000,-0.100000)"
fill="#000000" stroke="none">
<path d="M5100 9895 c-52 -30 -67 -33 -112 -25 -27 6 -60 5 -79 0 -18 -5 -35
-8 -37 -5 -2 2 -22 -5 -43 -15 -21 -11 -56 -20 -77 -20 -29 0 -50 -8 -77 -30
-22 -18 -50 -30 -67 -30 -27 0 -74 -17 -108 -39 -8 -6 -44 -20 -79 -32 -35
-13 -78 -34 -94 -48 -30 -25 -95 -38 -218 -44 -20 -1 -42 -7 -50 -13 -21 -18
-146 -74 -163 -74 -8 0 -18 -4 -21 -10 -3 -5 -18 -10 -31 -10 -14 0 -33 -9
-42 -21 -15 -17 -32 -25 -64 -28 -5 -1 -8 -8 -8 -16 0 -10 -10 -15 -30 -15
-23 0 -30 -5 -30 -19 0 -18 -20 -44 -92 -121 -20 -21 -42 -47 -50 -57 -7 -11
-29 -30 -48 -43 -51 -35 -189 -182 -190 -202 0 -9 -10 -25 -23 -35 -12 -10
-30 -29 -40 -43 -9 -14 -46 -63 -82 -110 -36 -47 -65 -92 -65 -102 0 -28 -56
-142 -81 -164 -13 -11 -40 -30 -59 -42 -19 -11 -48 -35 -65 -53 l-30 -32 38
28 c47 35 48 17 1 -35 -20 -21 -33 -44 -29 -50 4 -6 -3 -31 -14 -55 -12 -25
-21 -51 -21 -58 0 -7 -16 -29 -36 -48 -57 -55 -116 -137 -112 -155 2 -13 15
-1 42 39 22 31 41 55 44 52 5 -5 -53 -127 -73 -155 -6 -8 -20 -35 -30 -60 -37
-92 -68 -156 -86 -179 -11 -13 -19 -32 -19 -42 0 -10 -11 -51 -24 -91 -27 -83
-82 -353 -91 -443 -3 -33 -8 -79 -10 -102 -3 -25 0 -43 5 -43 6 0 10 13 10 28
0 60 41 237 96 414 29 95 111 238 135 238 15 0 10 -36 -7 -51 -9 -8 -13 -21
-10 -35 4 -13 2 -26 -4 -29 -15 -9 -12 -87 6 -136 17 -51 20 -116 9 -247 -6
-68 -4 -99 4 -116 11 -19 10 -32 -4 -72 -12 -34 -17 -76 -16 -139 2 -91 -8
-155 -38 -235 -8 -25 -16 -52 -17 -60 0 -8 -3 -22 -6 -30 -14 -40 -27 -89 -33
-130 -8 -49 -30 -100 -44 -100 -5 0 -14 15 -19 33 -21 70 -32 114 -41 157 -5
27 -9 35 -10 20 -2 -36 29 -227 45 -282 17 -58 11 -87 -31 -142 -38 -50 -49
-108 -28 -149 11 -22 11 -35 2 -66 -20 -66 20 -225 51 -206 5 3 12 -6 16 -20
6 -22 10 -25 35 -20 24 5 30 2 43 -24 9 -16 16 -36 16 -44 0 -8 10 -17 22 -20
20 -6 21 -10 15 -81 -4 -41 -18 -109 -32 -151 -14 -43 -25 -96 -24 -119 l1
-41 13 30 c17 37 17 42 15 -147 -1 -134 1 -161 17 -190 l18 -33 3 45 c7 94 31
59 47 -67 7 -51 24 -80 33 -54 5 15 52 -47 52 -69 0 -9 7 -25 15 -36 17 -22
20 -87 5 -114 -15 -28 4 -67 56 -118 24 -24 45 -54 45 -65 1 -12 2 -33 3 -46
1 -13 6 -26 11 -28 7 -2 9 86 8 252 -1 142 3 257 8 260 5 4 5 13 0 23 -5 9
-14 49 -19 87 -6 39 -15 90 -21 115 -6 25 -16 74 -22 110 -5 36 -15 83 -20
105 -34 132 -52 385 -37 520 4 33 10 98 13 145 3 47 15 141 26 210 11 69 27
168 35 220 20 140 72 402 129 660 10 48 18 70 24 70 3 0 7 32 9 72 4 85 36
165 65 160 9 -2 17 2 17 8 0 5 -7 10 -15 10 -9 0 -15 9 -15 25 0 16 6 25 15
25 9 0 15 10 15 26 0 19 4 25 15 20 21 -7 44 20 38 44 -3 12 1 26 10 33 8 7
17 21 19 32 2 11 13 24 26 30 12 5 22 17 22 26 0 9 7 22 15 29 8 7 15 21 15
31 0 11 6 19 14 19 7 0 19 20 26 45 7 24 19 50 26 56 8 6 14 18 14 25 0 8 4
14 10 14 5 0 15 18 21 40 7 22 15 40 19 40 4 0 10 16 13 35 3 19 13 42 21 51
9 8 18 27 22 42 8 42 18 54 56 74 25 13 41 32 52 58 8 21 24 44 35 52 10 8 22
30 26 51 4 20 11 37 15 37 4 0 15 18 26 40 10 22 25 40 33 40 10 0 11 3 3 13
-6 7 -8 23 -5 36 5 18 10 21 31 16 23 -6 24 -4 18 27 -3 18 -2 28 2 21 13 -20
36 3 48 49 7 29 16 43 26 42 9 -1 28 20 44 47 16 27 33 49 37 49 9 0 117 107
117 115 0 3 -8 5 -17 6 -15 0 -14 2 3 9 12 4 24 15 27 24 4 9 13 16 22 16 8 0
15 9 15 20 0 11 7 23 15 26 8 4 15 15 15 25 0 12 7 19 20 19 14 0 20 7 20 23
0 14 3 18 8 10 6 -9 13 -4 25 17 10 16 17 33 16 37 -2 5 6 10 17 11 10 2 29
13 41 24 14 13 28 18 42 13 15 -5 21 -2 21 9 0 9 -5 16 -11 16 -6 0 -1 15 13
33 13 17 29 45 36 61 10 23 15 26 27 16 11 -9 15 -9 15 -1 0 6 -4 11 -9 11
-16 0 -42 51 -36 70 9 27 22 25 29 -5 4 -14 10 -24 14 -24 37 6 82 -3 82 -16
0 -20 30 -18 56 3 14 12 21 30 22 57 1 22 6 41 12 43 5 2 10 10 10 17 0 18 36
38 53 30 6 -4 3 0 -7 9 -10 8 -24 17 -30 20 -7 3 -6 8 4 15 19 14 40 14 40 1
0 -5 -6 -10 -12 -10 -7 0 0 -7 16 -15 15 -8 35 -15 42 -15 8 0 14 -7 14 -15 0
-8 9 -20 20 -27 14 -9 20 -24 20 -50 0 -36 19 -65 21 -34 1 9 3 21 4 26 1 6 3
17 4 27 2 26 13 7 17 -28 5 -37 9 -43 23 -34 17 10 13 25 -6 26 -14 0 -13 2 5
9 12 5 25 16 28 25 7 18 40 20 47 3 4 -10 7 -10 18 0 7 6 22 12 33 12 11 0 28
8 38 17 17 16 20 16 35 0 16 -16 16 -17 -10 -17 -24 0 -27 -4 -27 -32 0 -18
-3 -43 -6 -55 -6 -21 -3 -23 34 -23 l41 0 -3 53 c-2 28 -1 35 1 15 5 -42 30
-53 35 -15 3 20 9 22 66 25 61 3 62 3 62 32 0 28 2 30 40 30 22 0 40 5 40 10
0 13 55 13 103 -1 37 -10 37 -10 37 -63 l0 -53 48 2 c31 2 34 1 10 -2 -50 -6
-49 -23 1 -23 41 0 71 -20 71 -46 0 -8 -4 -14 -10 -14 -18 0 -10 -29 9 -35 11
-3 23 -15 26 -26 4 -10 11 -19 16 -19 12 0 12 47 -1 55 -14 9 -12 25 3 25 6 0
28 -18 47 -40 30 -35 41 -40 78 -40 23 0 42 5 42 10 0 6 -18 10 -40 10 -33 0
-40 3 -40 20 0 17 7 20 40 20 22 0 40 5 40 10 0 6 10 10 23 10 22 1 22 1 2 16
-18 13 -20 13 -23 0 -7 -32 -22 -15 -22 24 0 22 5 40 10 40 6 0 10 -9 10 -21
0 -16 4 -19 18 -14 9 4 27 10 40 12 12 3 22 9 22 14 0 25 19 4 27 -28 7 -33
13 -38 41 -41 28 -3 30 -5 20 -21 -14 -22 -5 -49 19 -58 33 -12 75 -48 89 -75
14 -27 44 -39 44 -18 0 6 5 10 11 10 6 0 8 -9 4 -20 -9 -27 3 -44 20 -30 10 8
17 5 29 -12 9 -12 16 -17 16 -10 0 23 29 12 67 -26 21 -21 68 -53 106 -72 37
-18 67 -37 67 -41 0 -5 6 -9 14 -9 7 0 25 -12 40 -26 14 -15 26 -21 26 -15 0
7 5 9 10 6 6 -3 10 -17 10 -31 0 -14 5 -24 13 -23 30 4 58 -2 52 -11 -3 -6 3
-23 14 -38 11 -15 21 -46 23 -67 2 -32 8 -42 31 -53 15 -7 27 -19 27 -26 0 -8
7 -19 15 -26 8 -7 15 -23 15 -36 0 -13 11 -34 25 -46 14 -12 25 -28 25 -37 0
-8 7 -22 16 -32 8 -9 17 -30 19 -45 1 -15 12 -36 24 -45 11 -9 21 -26 21 -38
0 -11 12 -32 27 -46 19 -17 23 -25 13 -25 -13 -1 -13 -3 1 -13 10 -7 15 -25
14 -45 -1 -26 3 -35 24 -45 14 -7 32 -26 40 -42 13 -27 15 -28 22 -10 4 11 8
14 8 8 1 -15 31 -18 31 -3 0 6 9 10 20 10 11 0 20 -4 20 -10 0 -5 -8 -10 -19
-10 -15 0 -19 -10 -23 -51 -6 -60 8 -125 28 -133 9 -3 14 1 14 12 0 12 8 18
24 17 27 0 49 -15 23 -15 -9 0 -17 -4 -17 -10 0 -5 13 -10 29 -10 22 0 32 6
37 22 4 13 2 24 -5 26 -6 2 -11 10 -11 19 0 10 -6 12 -21 8 -15 -5 -19 -4 -15
4 4 6 14 11 21 11 19 0 85 -59 85 -76 0 -19 10 -18 25 3 10 14 13 8 19 -34 4
-30 14 -57 25 -67 19 -17 20 -17 24 11 3 21 4 17 6 -14 1 -37 4 -43 22 -43 18
0 20 4 14 28 -3 15 -13 40 -21 56 -20 42 -17 54 7 29 13 -12 23 -39 26 -64 3
-23 12 -49 19 -57 8 -7 14 -20 14 -28 0 -23 30 -77 58 -102 20 -19 24 -30 19
-61 -3 -29 1 -43 19 -66 13 -17 24 -35 24 -41 0 -5 11 -25 25 -44 15 -21 25
-48 25 -69 0 -20 7 -45 15 -55 13 -17 13 -22 -1 -37 -11 -12 -12 -19 -4 -24 9
-6 9 -10 -1 -15 -10 -7 -10 -11 1 -25 11 -13 10 -18 -4 -28 -18 -13 -30 -67
-15 -67 5 0 9 -5 9 -11 0 -6 -6 -9 -12 -6 -9 2 -20 -30 -35 -107 -22 -109 -22
-122 -18 -696 4 -492 3 -600 -10 -680 -9 -52 -19 -122 -24 -155 -15 -99 -65
-290 -83 -310 -4 -5 -8 -19 -8 -30 0 -12 -8 -51 -19 -86 -30 -104 -53 -200
-61 -259 -16 -111 -71 -373 -103 -490 -17 -60 -73 -230 -108 -325 -28 -75
-159 -335 -169 -335 -4 0 -10 -8 -14 -17 -11 -33 -102 -163 -151 -218 -169
-187 -321 -319 -432 -376 -29 -15 -49 -30 -45 -33 3 -4 0 -4 -9 -1 -9 3 -25
-5 -39 -20 -26 -28 -40 -32 -40 -11 0 12 -6 12 -32 4 -75 -25 -116 -43 -112
-49 2 -4 -21 -14 -52 -24 -31 -9 -58 -23 -61 -30 -2 -8 -12 -14 -21 -13 -24 0
-96 -27 -171 -65 -51 -25 -77 -32 -124 -32 -40 0 -62 5 -65 13 -2 7 -24 21
-48 32 -41 19 -94 81 -94 110 0 5 -6 10 -13 10 -7 0 -31 18 -52 40 -21 22 -44
40 -50 40 -23 0 -62 25 -71 45 -8 18 -18 20 -91 20 -44 0 -84 3 -88 7 -4 4
-15 4 -24 -1 -24 -12 -111 -24 -111 -14 0 9 -58 10 -80 1 -40 -17 -84 -22
-191 -22 -94 -1 -119 -4 -132 -18 -17 -17 -131 -35 -166 -25 -10 2 -26 0 -35
-5 -12 -7 -23 -2 -41 17 -14 14 -32 25 -39 25 -8 0 -16 6 -19 14 -3 8 -15 12
-30 9 -19 -4 -27 0 -32 16 -3 12 -13 21 -20 21 -8 0 -28 13 -45 30 -17 16 -35
30 -41 30 -12 0 -92 81 -93 95 -1 15 -62 75 -76 75 -6 0 -19 17 -28 38 -23 51
-52 85 -85 99 -27 12 -27 14 -12 37 9 13 23 27 31 30 8 3 14 12 14 21 0 11 11
15 39 15 22 0 41 5 44 13 3 6 3 -5 0 -27 -6 -36 -5 -38 14 -27 13 6 29 36 43
80 25 74 41 82 59 30 9 -27 13 -29 65 -29 31 0 56 -4 56 -10 0 -6 33 -10 80
-10 47 0 80 4 80 10 0 6 18 10 40 10 22 0 40 -4 40 -10 0 -6 29 -10 68 -10 37
-1 99 -5 137 -10 76 -11 235 -29 301 -34 23 -2 46 -6 52 -10 6 -3 12 0 14 6 3
7 20 13 40 13 28 0 34 -3 30 -17 -5 -21 10 -23 38 -5 17 10 25 9 48 -3 22 -13
63 -15 226 -14 l199 2 27 30 c15 16 36 32 46 36 27 8 80 65 89 94 5 19 2 25
-14 29 -15 4 -21 13 -21 33 0 20 -6 31 -21 35 -11 4 -51 37 -87 73 l-67 66
-96 4 c-81 4 -96 7 -95 20 1 17 -40 23 -151 22 -33 -1 -43 3 -43 16 0 11 -5
14 -16 10 -9 -3 -22 -6 -30 -6 -9 0 -12 -5 -8 -11 5 -8 1 -8 -14 0 -14 8 -23
8 -27 1 -7 -11 -25 -12 -170 -10 -67 1 -83 5 -95 21 -10 12 -39 24 -79 32 -49
10 -67 19 -74 35 -6 12 -16 22 -24 22 -29 0 -71 30 -75 55 -10 47 9 57 123 61
57 3 119 9 138 14 22 6 39 6 46 0 7 -6 15 -7 19 -3 11 11 108 5 116 -8 5 -8
22 -9 55 -5 30 5 51 3 60 -4 9 -7 41 -11 80 -10 62 2 140 3 195 2 14 0 63 0
110 0 74 1 164 -15 226 -39 13 -5 15 -3 9 7 -6 10 -4 12 9 7 10 -4 25 -7 33
-7 9 0 13 -3 10 -6 -12 -12 13 -43 46 -58 17 -8 60 -16 95 -18 58 -4 65 -7 94
-42 17 -21 57 -57 89 -80 33 -24 56 -46 52 -49 -6 -7 12 -11 31 -8 5 1 16 -5
26 -14 12 -11 26 -14 44 -9 18 4 26 2 26 -7 1 -16 69 -63 78 -54 4 3 0 11 -8
16 -11 8 -10 9 8 4 17 -5 22 -2 22 12 0 36 -13 63 -29 63 -14 1 -14 2 1 14 16
11 16 18 3 72 -8 32 -14 73 -15 90 0 17 -7 37 -15 44 -8 7 -13 16 -10 20 3 4
-2 13 -10 20 -17 14 -40 61 -49 100 -3 14 -25 45 -48 70 -42 43 -45 45 -101
45 -32 -1 -61 -6 -65 -12 -10 -16 -82 -28 -82 -14 0 6 -7 8 -14 5 -17 -7 -66
19 -108 57 -16 14 -46 35 -66 46 -20 11 -70 39 -109 62 -70 41 -75 42 -120 33
-37 -8 -55 -7 -82 4 -20 8 -60 14 -95 13 -34 -2 -71 1 -83 5 -14 4 -34 1 -52
-8 -40 -21 -70 -20 -132 4 -70 28 -107 31 -118 11 -8 -14 -11 -14 -30 3 -21
19 -21 19 -21 -2 0 -15 -5 -20 -15 -16 -8 4 -15 12 -15 20 0 18 -47 18 -80 -1
-14 -8 -35 -14 -48 -15 -12 0 -39 -8 -60 -19 -20 -10 -50 -21 -67 -24 -27 -5
-93 -34 -168 -74 -15 -8 -43 -17 -62 -20 -30 -5 -35 -3 -35 15 0 23 -18 32
-63 32 -35 0 -97 -20 -97 -32 0 -4 -20 -8 -45 -8 -58 0 -132 -37 -165 -81 -31
-43 -50 -78 -50 -94 0 -7 -5 -15 -11 -17 -6 -2 -15 -26 -20 -53 -5 -27 -13
-51 -18 -54 -4 -4 -13 -16 -19 -28 -8 -14 -25 -24 -52 -28 -22 -4 -40 -11 -40
-16 0 -5 -7 -9 -16 -9 -22 0 -64 -41 -64 -62 0 -10 -7 -18 -16 -18 -12 0 -15
-11 -13 -59 2 -42 -3 -67 -14 -85 -9 -14 -17 -41 -17 -61 0 -19 -4 -35 -10
-35 -5 0 -10 -9 -10 -20 0 -17 -7 -20 -40 -20 -33 0 -40 -3 -40 -20 0 -17 -7
-20 -40 -20 -28 0 -40 4 -40 15 0 22 -36 38 -59 25 -17 -9 -20 -6 -24 18 l-4
27 -2 -28 c-1 -26 -2 -27 -17 -13 -9 9 -17 24 -18 34 -2 9 -7 17 -12 17 -19 0
-34 17 -34 36 0 19 -35 58 -52 59 -4 0 -12 -8 -17 -18 -11 -20 18 -90 55 -135
13 -16 24 -34 24 -42 0 -7 7 -19 17 -26 9 -8 27 -38 40 -67 21 -49 22 -54 7
-76 -19 -30 -7 -39 40 -31 29 6 38 2 70 -31 20 -20 36 -42 36 -47 0 -6 9 -21
21 -33 19 -20 19 -25 8 -64 -11 -37 -10 -46 8 -83 26 -52 44 -138 50 -239 7
-105 -12 -151 -89 -223 -33 -30 -62 -55 -65 -55 -10 0 -153 -92 -153 -99 1
-23 20 -32 54 -26 24 5 36 3 36 -4 0 -6 -19 -12 -42 -13 l-43 -1 45 -6 c36 -5
48 -12 65 -38 11 -18 28 -32 38 -33 12 0 17 -8 16 -27 l-1 -28 -9 25 c-7 22
-8 21 -6 -10 1 -27 11 -43 39 -69 29 -25 36 -39 32 -55 -3 -14 1 -27 10 -35 8
-7 20 -37 26 -67 6 -30 16 -54 21 -54 5 0 9 -7 9 -14 0 -8 12 -21 28 -28 15
-7 27 -20 27 -28 0 -16 25 -82 34 -90 16 -14 31 -53 31 -80 0 -28 2 -30 40
-30 29 0 40 -4 40 -15 0 -11 11 -15 40 -15 22 0 40 -4 40 -10 0 -5 5 -10 10
-10 6 0 10 18 10 40 0 22 -4 40 -10 40 -5 0 -10 18 -10 40 0 22 5 40 10 40 6
0 10 18 10 40 0 22 -4 40 -10 40 -5 0 -10 17 -10 38 0 31 -8 47 -40 82 -22 24
-40 47 -40 52 0 4 18 8 40 8 l40 0 0 -50 c0 -27 5 -50 10 -50 6 0 10 33 10 80
l0 80 -30 0 c-28 0 -30 2 -30 40 0 33 3 40 20 40 15 0 20 7 20 28 0 15 5 33
12 40 9 9 9 12 0 12 -7 0 -12 7 -12 17 0 15 1 15 18 0 10 -10 24 -17 30 -17 6
0 17 -8 24 -18 7 -9 30 -28 50 -42 21 -14 38 -28 38 -32 0 -5 9 -8 21 -8 32 0
59 -19 59 -40 0 -11 5 -20 12 -20 6 0 42 -14 80 -31 55 -26 68 -36 68 -55 0
-17 9 -25 36 -34 19 -7 38 -18 41 -26 3 -8 14 -14 24 -14 11 0 27 -4 37 -9 9
-5 35 -17 57 -27 22 -11 42 -22 45 -25 3 -3 21 -14 40 -25 19 -10 39 -24 45
-30 5 -6 30 -19 55 -29 25 -11 47 -23 50 -27 3 -4 23 -15 45 -25 60 -27 135
-74 135 -83 0 -22 -14 -40 -31 -40 -13 0 -19 -7 -19 -24 0 -13 -6 -28 -13 -34
-14 -12 -11 -102 4 -102 5 0 9 -18 9 -40 l0 -40 -40 0 -40 0 0 42 0 41 -38
-41 c-34 -36 -45 -42 -80 -42 -35 0 -42 -3 -42 -20 0 -17 -7 -20 -40 -20 -33
0 -40 -3 -40 -20 0 -17 -7 -20 -40 -20 -22 0 -40 5 -40 10 0 6 -33 10 -80 10
-47 0 -80 -4 -80 -10 0 -5 18 -10 40 -10 l40 0 0 -40 0 -40 -120 0 c-103 0
-120 -2 -120 -16 0 -14 10 -15 80 -9 56 5 80 4 80 -4 0 -7 28 -11 80 -11 73 0
80 -2 80 -20 0 -12 -7 -20 -17 -20 -14 0 -14 -2 2 -20 12 -13 31 -20 57 -20
21 0 38 -4 38 -10 0 -6 33 -10 80 -10 74 0 80 -2 80 -20 0 -17 3 -19 19 -10
11 5 29 10 40 10 17 0 21 6 21 30 0 28 2 30 40 30 22 0 40 -4 40 -10 0 -5 18
-10 40 -10 37 0 40 -2 40 -28 0 -41 57 -58 137 -42 31 7 75 9 97 6 92 -15 304
-25 361 -17 59 9 125 -5 125 -26 0 -5 23 -14 52 -21 28 -6 59 -19 68 -27 9 -8
22 -15 28 -15 7 0 12 -7 12 -15 0 -8 7 -15 15 -15 8 0 15 -4 15 -9 0 -8 99
-49 131 -55 23 -4 82 -37 119 -67 19 -16 39 -29 44 -29 5 0 23 -10 40 -23 139
-102 387 -155 664 -143 79 3 152 11 162 16 11 6 43 12 72 14 30 3 77 16 108
31 30 15 66 32 80 39 28 13 63 43 196 173 52 50 94 95 94 100 0 26 217 203
249 203 5 0 11 4 13 9 5 14 145 89 318 169 71 34 111 59 140 89 15 15 48 47
74 71 25 24 46 47 46 52 0 6 5 10 10 10 6 0 25 14 43 31 17 17 39 36 48 43 9
6 29 36 44 66 15 30 34 63 42 72 11 13 14 32 11 68 -9 90 -52 113 -184 97 -66
-8 -93 -7 -150 7 -106 25 -204 56 -253 79 -24 11 -68 21 -99 22 -40 1 -58 7
-68 20 -8 10 -17 16 -20 12 -7 -7 -64 23 -64 34 0 4 -12 12 -27 18 -16 6 -35
15 -43 20 -8 6 -37 21 -65 33 -74 35 -100 54 -131 101 -24 37 -28 51 -27 119
1 47 8 95 18 122 10 25 15 52 12 60 -4 9 2 46 11 83 14 56 16 93 11 208 -4 77
-12 160 -19 185 -6 25 -13 63 -16 85 -2 22 -9 62 -14 89 -8 38 -8 52 2 59 10
7 10 10 0 14 -6 2 -10 9 -6 14 7 12 44 12 44 -1 0 -21 20 -9 26 15 4 16 -1 37
-15 60 -12 20 -21 45 -21 56 0 11 -5 29 -11 40 -7 14 -7 29 2 54 9 25 10 40 2
57 -18 38 -34 108 -28 118 7 11 27 163 25 190 0 8 -3 41 -6 74 -6 63 2 80 39
81 13 0 23 7 25 20 3 11 11 24 18 30 19 13 25 185 8 192 -7 2 -25 -2 -41 -9
-36 -18 -53 -17 -66 3 -8 13 -6 21 6 34 9 9 27 50 39 90 13 41 28 74 33 73 6
-1 26 5 46 14 37 16 49 43 49 104 0 13 4 24 8 24 4 0 14 28 21 63 8 34 22 76
31 92 10 17 23 48 29 70 16 55 27 290 14 282 -6 -4 -10 45 -9 141 1 123 4 152
18 174 12 18 14 29 7 33 -6 4 -8 14 -4 23 3 8 0 19 -6 23 -9 5 -8 12 4 24 10
9 17 12 17 6 0 -7 14 -9 40 -5 32 5 40 3 40 -8 0 -9 -7 -21 -15 -28 -23 -19
-18 -30 15 -30 17 0 30 4 30 8 0 5 10 18 21 31 12 12 41 53 65 89 38 58 44 74
44 121 0 42 -6 64 -31 103 -28 47 -29 51 -14 74 8 13 22 24 30 24 18 0 18 1 5
34 -8 21 -3 36 35 98 25 40 45 78 45 85 0 7 9 30 20 51 13 25 23 69 27 121 3
45 10 84 15 87 4 3 8 29 8 57 0 29 9 70 19 92 27 60 32 91 21 120 -8 20 -6 42
6 83 10 37 18 116 21 227 4 144 2 188 -16 293 -12 67 -28 141 -35 165 -37 109
-56 219 -25 141 17 -43 70 -220 85 -284 15 -66 18 -33 4 42 -35 180 -112 403
-200 579 -43 86 -89 181 -101 210 -13 30 -38 76 -56 103 -18 26 -33 53 -33 60
0 6 -14 31 -31 56 -16 24 -35 63 -40 87 -6 23 -16 41 -22 40 -15 -3 -22 34 -8
42 5 4 8 17 4 29 -3 12 -9 19 -14 16 -5 -3 -9 8 -9 24 0 20 -13 46 -40 78 -22
27 -40 56 -40 66 0 11 -17 24 -45 37 -25 11 -45 24 -45 30 0 5 -10 13 -22 17
-26 8 -160 143 -153 154 7 11 -34 44 -92 75 -29 15 -60 39 -69 53 -24 37 -183
190 -229 220 -44 30 -49 33 -84 62 -13 11 -31 20 -39 20 -8 0 -30 14 -49 30
-18 17 -42 30 -52 30 -10 0 -31 12 -47 26 -32 28 -97 64 -115 64 -6 0 -24 11
-41 25 -16 14 -55 32 -86 40 -31 9 -65 20 -74 25 -10 6 -24 10 -31 10 -7 0
-28 11 -47 25 -19 14 -43 25 -54 25 -12 0 -39 18 -60 40 -26 26 -48 40 -66 40
-14 0 -35 7 -47 15 -37 26 -104 45 -157 46 -28 1 -62 8 -75 16 -18 12 -39 14
-83 9 -34 -3 -68 -1 -78 4 -10 6 -71 11 -135 12 -83 1 -118 5 -122 13 -7 19
-61 27 -83 13 -15 -10 -27 -10 -53 0 -41 15 -37 15 -67 -3z m-398 -447 c-14
-14 -16 -28 -3 -28 5 0 12 9 16 20 8 25 30 7 33 -27 1 -17 -3 -23 -18 -23 -22
0 -39 -22 -22 -28 7 -2 12 -9 12 -15 0 -6 -13 2 -30 18 -36 34 -39 66 -7 81
30 16 33 16 19 2z m313 -64 l25 -16 -26 -20 c-18 -15 -28 -18 -36 -10 -8 8 -5
14 12 20 l23 9 -24 16 c-30 22 -6 22 26 1z m-182 -21 c-7 -2 -19 -2 -25 0 -7
3 -2 5 12 5 14 0 19 -2 13 -5z m-78 -53 c-3 -5 -13 -10 -21 -10 -8 0 -14 5
-14 10 0 6 9 10 21 10 11 0 17 -4 14 -10z m1065 -10 c0 -11 -2 -20 -3 -20 -2
0 -12 9 -22 20 -18 19 -17 20 3 20 15 0 22 -6 22 -20z m-317 -27 c-13 -2 -33
-2 -45 0 -13 2 -3 4 22 4 25 0 35 -2 23 -4z m54 -49 c-3 -4 -14 -3 -24 0 -15
6 -15 8 -3 16 16 10 39 -4 27 -16z m-1261 -14 c19 0 30 -30 14 -40 -15 -9 -68
10 -75 28 -2 7 0 10 5 7 6 -3 10 -1 10 5 0 7 7 9 16 6 9 -3 22 -6 30 -6z m-86
-77 c0 -9 -34 -32 -46 -33 -6 0 -22 10 -35 21 l-24 22 32 -6 c18 -4 35 -2 38
3 6 9 35 3 35 -7z m30 -3 c0 -5 -5 -10 -11 -10 -5 0 -7 5 -4 10 3 6 8 10 11
10 2 0 4 -4 4 -10z m-207 -97 c-7 -2 -21 -2 -30 0 -10 3 -4 5 12 5 17 0 24 -2
18 -5z m-46 -59 c-3 -3 -12 -4 -19 -1 -8 3 -5 6 6 6 11 1 17 -2 13 -5z m39
-33 c-3 -5 -21 -14 -38 -20 l-33 -11 24 20 c23 20 57 28 47 11z m2934 -875 c0
-7 11 -30 25 -50 23 -34 23 -36 5 -36 -10 0 -23 -8 -29 -17 -11 -20 -8 -22
-26 33 -7 22 5 84 16 84 5 0 9 -6 9 -14z m775 -6 c3 -5 1 -10 -4 -10 -6 0 -11
5 -11 10 0 6 2 10 4 10 3 0 8 -4 11 -10z m78 -107 c2 -5 7 -21 11 -38 l7 -30
-21 25 c-11 14 -20 31 -20 38 0 13 16 17 23 5z m-483 -83 c0 -5 -4 -10 -10
-10 -5 0 -10 5 -10 10 0 6 5 10 10 10 6 0 10 -4 10 -10z m482 -12 c28 -45 81
-175 118 -288 68 -210 86 -322 100 -605 10 -216 3 -300 -36 -442 -12 -43 -47
17 -88 145 -14 46 -31 93 -38 105 -6 12 -17 56 -24 97 -7 41 -20 111 -29 155
-11 51 -14 104 -11 145 3 36 1 81 -5 100 -15 48 -11 148 7 186 12 25 14 57 11
140 -5 103 -9 122 -50 211 -7 16 -7 30 1 48 14 31 26 32 44 3z m-5112 -12 c0
-8 -34 -81 -75 -161 -41 -81 -75 -142 -75 -137 0 23 96 257 123 300 11 16 27
15 27 -2z m4350 -21 c13 -16 6 -35 -15 -35 -12 0 -25 21 -25 41 0 14 26 11 40
-6z m260 -21 c0 -8 -4 -12 -10 -9 -5 3 -10 10 -10 16 0 5 5 9 10 9 6 0 10 -7
10 -16z m153 -319 c26 -46 21 -64 -5 -22 -14 21 -30 67 -23 67 2 0 15 -20 28
-45z m57 -89 c0 -13 7 -29 15 -36 17 -14 21 -45 5 -35 -14 9 -49 83 -42 89 12
13 22 5 22 -18z m304 -1601 c14 -10 17 -18 10 -25 -7 -7 -18 -2 -34 15 -26 28
-9 35 24 10z m-58 -231 c-3 -9 -6 -20 -6 -25 0 -5 -6 -9 -14 -9 -9 0 -12 8 -8
25 2 14 11 25 19 25 10 0 13 -6 9 -16z m-5096 -276 c0 -16 -3 -19 -11 -11 -6
6 -8 16 -5 22 11 17 16 13 16 -11z m4896 -218 l6 -35 -16 29 c-18 32 -22 66
-6 50 5 -5 12 -25 16 -44z m-16 -59 c13 -26 13 -70 -2 -126 -13 -47 -27 -56
-48 -30 -9 11 -9 28 4 78 9 35 16 71 16 80 0 23 17 21 30 -2z m-4913 -68 c-3
-10 -5 -4 -5 12 0 17 2 24 5 18 2 -7 2 -21 0 -30z m4833 -140 c0 -12 -4 -25
-10 -28 -6 -4 -10 11 -10 37 0 31 3 39 10 28 5 -8 10 -25 10 -37z m-3175 -963
c19 0 23 -6 27 -40 2 -22 0 -40 -4 -40 -5 0 -17 -9 -28 -20 -20 -20 -56 -28
-45 -10 10 16 -5 50 -21 50 -19 0 -18 29 1 36 8 4 15 13 15 21 0 10 6 13 16 9
9 -3 26 -6 39 -6z m-171 -240 c9 0 16 -23 20 -72 4 -40 9 -81 12 -90 5 -15 -1
-18 -36 -18 -35 0 -41 3 -36 18 3 9 8 49 12 89 l6 71 -28 4 c-17 2 -30 10 -32
20 -5 26 31 26 51 1 10 -13 24 -23 31 -23z m-954 -10 c0 -5 -2 -10 -4 -10 -3
0 -8 5 -11 10 -3 6 -1 10 4 10 6 0 11 -4 11 -10z m4160 -220 c0 -5 9 -10 20
-10 11 0 20 -4 20 -8 0 -4 -12 -8 -27 -7 -18 0 -29 6 -31 18 -2 9 1 17 7 17 6
0 11 -4 11 -10z m-780 -445 c6 -8 9 -23 5 -36 -5 -15 -4 -19 4 -14 9 5 12 -17
11 -82 -1 -99 13 -202 35 -250 8 -17 12 -38 9 -47 -3 -9 -1 -16 5 -16 6 0 12
-19 12 -42 1 -38 2 -39 8 -14 5 26 8 27 19 13 25 -29 33 -136 16 -202 -9 -33
-20 -64 -25 -69 -5 -6 -9 -18 -9 -28 0 -10 -7 -29 -15 -42 -9 -13 -20 -61 -25
-107 -5 -46 -15 -106 -20 -134 -6 -27 -15 -70 -19 -95 -4 -25 -12 -54 -18 -66
-7 -11 -17 -52 -23 -90 -15 -92 -28 -124 -57 -135 -14 -5 -23 -17 -23 -30 0
-13 -8 -23 -21 -26 -16 -5 -20 -12 -17 -34 3 -15 0 -25 -4 -22 -5 3 -18 -3
-29 -13 -11 -9 -29 -18 -42 -19 -14 -1 -23 -9 -25 -23 -2 -12 -9 -22 -17 -22
-7 0 -15 -9 -18 -20 -4 -17 -14 -20 -54 -20 -37 0 -52 5 -63 20 -8 12 -26 20
-42 20 -23 0 -28 4 -28 24 0 26 -39 70 -82 92 -34 18 -48 43 -48 88 0 26 -4
36 -16 36 -12 0 -11 5 7 20 l24 20 -21 18 c-18 15 -19 20 -8 47 16 37 19 215
3 215 -5 0 2 11 17 24 l28 23 -22 28 c-12 15 -22 41 -22 56 0 16 -6 29 -12 30
-7 0 -3 5 9 11 12 6 23 19 26 29 3 11 12 19 21 19 9 0 16 5 16 10 0 6 -7 10
-15 10 -8 0 -15 -4 -15 -10 0 -5 -11 -10 -25 -10 -20 0 -25 5 -25 24 0 13 7
26 15 30 8 3 15 13 15 22 0 8 10 24 22 34 l23 18 -40 10 c-22 6 -52 14 -67 17
-46 9 -34 28 13 22 31 -4 38 -2 30 6 -6 6 -11 26 -11 44 0 27 -4 33 -22 34
l-23 0 23 11 c12 6 22 19 22 28 0 9 -10 22 -22 28 -23 11 -23 11 4 11 17 1 40
15 66 41 23 24 48 40 62 40 22 0 23 1 5 20 -17 19 -17 20 6 30 52 23 84 48 84
66 0 10 17 37 39 59 36 37 49 46 119 82 15 8 27 19 27 24 0 5 3 8 8 8 22 -4
32 3 32 22 0 18 4 20 26 15 23 -6 25 -4 19 16 -3 13 -3 18 2 11 5 -7 26 8 63
48 58 62 70 68 90 44z m680 -21 c16 -40 12 -91 -10 -131 -11 -21 -17 -47 -14
-62 4 -26 4 -26 -6 -3 -12 28 -2 222 12 222 5 0 13 -12 18 -26z m70 -233 c0
-38 -3 -49 -15 -47 -21 3 -31 16 -12 16 13 0 17 9 17 40 0 22 2 40 5 40 3 0 5
-22 5 -49z m-2 -104 c4 -19 -19 -77 -30 -77 -4 0 -8 -12 -10 -26 -4 -34 -32
-54 -50 -36 -10 10 -10 17 0 32 6 11 12 26 12 33 0 7 9 32 21 56 21 44 50 53
57 18z"/>
<path d="M7820 7280 c0 -5 5 -10 10 -10 6 0 10 5 10 10 0 6 -4 10 -10 10 -5 0
-10 -4 -10 -10z"/>
<path d="M6080 2405 c0 -8 9 -15 20 -15 13 0 18 5 14 15 -4 8 -12 15 -20 15
-8 0 -14 -7 -14 -15z"/>
<path d="M6020 2386 c6 -8 18 -12 26 -9 23 9 16 23 -12 23 -22 0 -24 -2 -14
-14z"/>
<path d="M4665 9290 c-3 -5 1 -10 9 -10 8 0 18 5 21 10 3 6 -1 10 -9 10 -8 0
-18 -4 -21 -10z"/>
<path d="M5300 9110 c0 -5 9 -10 20 -10 11 0 20 5 20 10 0 6 -9 10 -20 10 -11
0 -20 -4 -20 -10z"/>
<path d="M5300 9050 c0 -5 9 -10 20 -10 11 0 20 5 20 10 0 6 -9 10 -20 10 -11
0 -20 -4 -20 -10z"/>
<path d="M2724 8197 c-35 -40 -81 -111 -89 -137 -4 -14 7 -4 25 25 18 28 46
67 62 88 33 41 34 61 2 24z"/>
<path d="M2571 7948 c-22 -45 -39 -83 -37 -85 5 -6 96 141 96 155 0 31 -22 5
-59 -70z"/>
<path d="M2459 7687 c-28 -66 -48 -150 -31 -132 17 19 64 151 60 173 -2 16
-10 4 -29 -41z"/>
<path d="M3904 7630 c-12 -5 -53 -9 -91 -9 -38 0 -82 -5 -99 -12 -16 -7 -33
-13 -39 -13 -5 -1 -32 -11 -59 -24 -27 -12 -52 -22 -56 -22 -4 0 -13 -7 -21
-16 -7 -8 -27 -23 -45 -32 -28 -15 -159 -129 -261 -228 -18 -18 -33 -28 -33
-23 0 5 -9 0 -20 -11 -18 -18 -19 -22 -6 -35 13 -14 12 -20 -7 -58 -12 -23
-29 -47 -38 -54 -8 -6 -24 -32 -34 -57 -11 -25 -22 -46 -26 -46 -12 0 -39 -60
-39 -85 0 -18 4 -21 25 -17 22 4 28 -1 38 -27 17 -45 43 -49 79 -12 23 24 34
28 51 22 24 -9 31 -11 47 -11 17 0 11 -18 -8 -24 -24 -8 -24 -36 0 -36 25 0
23 -19 -6 -41 -15 -11 -26 -34 -31 -61 -4 -24 -9 -37 -12 -30 -3 8 -11 4 -25
-13 -11 -14 -17 -32 -14 -40 3 -9 1 -27 -4 -41 -8 -21 -6 -29 15 -48 14 -13
35 -52 47 -86 21 -63 40 -91 72 -103 9 -4 22 -20 27 -37 6 -16 15 -30 20 -30
5 0 9 -7 9 -16 0 -14 29 -46 74 -82 9 -7 51 -14 100 -16 47 -1 91 -8 98 -14
15 -12 94 -15 203 -8 57 4 64 3 37 -5 -28 -8 -32 -12 -22 -24 7 -8 18 -15 25
-15 7 0 15 -9 18 -21 6 -22 10 -22 152 -6 40 5 40 5 11 -8 -28 -12 -27 -13 35
-17 35 -3 74 -1 87 3 12 5 22 5 22 0 0 -5 -7 -11 -15 -15 -8 -3 -15 -15 -15
-27 0 -17 4 -20 24 -15 18 4 28 1 35 -11 9 -16 10 -16 11 5 0 23 16 30 22 10
3 -8 12 -4 26 10 12 12 25 22 30 22 4 0 32 22 62 50 30 27 64 50 75 52 12 2
20 11 20 23 0 16 6 19 28 17 16 -2 35 2 43 9 11 9 14 8 14 -2 1 -8 7 -2 16 13
16 30 50 53 58 39 3 -4 5 -25 4 -45 -1 -20 1 -38 4 -41 3 -3 18 6 34 20 44 39
52 45 61 45 21 1 63 51 63 75 0 16 6 25 15 25 11 0 15 11 15 43 0 23 7 67 15
97 8 30 15 88 15 128 0 41 4 72 10 72 6 0 10 13 10 29 0 17 5 33 10 36 7 4 2
15 -12 27 -20 17 -20 19 -4 16 24 -4 59 42 59 79 0 15 -3 41 -7 57 -4 18 -3
32 5 36 14 10 3 30 -17 30 -11 0 -13 9 -8 43 4 23 11 44 16 45 14 6 -2 22 -22
22 -15 0 -19 6 -18 28 1 15 8 33 15 40 18 19 16 133 -2 180 -9 22 -15 43 -14
48 3 17 -1 29 -19 52 -18 23 -18 23 -14 -18 3 -34 2 -39 -12 -34 -9 3 -16 17
-16 29 0 13 -3 31 -6 40 -6 13 -9 14 -16 3 -7 -10 -11 -10 -15 0 -2 6 -11 12
-18 12 -7 0 -15 7 -19 15 -3 9 -18 15 -36 15 -23 0 -30 4 -30 20 0 11 -6 20
-12 20 -10 0 -9 3 1 9 19 12 -2 23 -31 16 -13 -3 -35 -2 -48 3 -17 6 -39 5
-68 -3 -24 -8 -44 -9 -48 -4 -3 5 -29 9 -59 9 -30 0 -56 4 -59 8 -3 5 -54 12
-114 15 -75 4 -134 14 -192 32 -50 16 -92 24 -107 20 -20 -5 -24 -3 -20 9 4 9
5 16 4 15 -1 0 -12 -4 -23 -9z m-129 -100 c-3 -5 -10 -10 -16 -10 -5 0 -9 5
-9 10 0 6 7 10 16 10 8 0 12 -4 9 -10z m642 -16 c-3 -3 -12 -4 -19 -1 -8 3 -5
6 6 6 11 1 17 -2 13 -5z m-790 -290 c29 -9 55 -20 59 -25 3 -5 17 -9 32 -9 21
0 24 2 12 10 -13 8 -12 10 3 10 9 0 17 -4 17 -10 0 -5 9 -10 21 -10 15 0 19 5
15 15 -3 8 -1 15 5 15 6 0 7 5 4 10 -4 6 5 10 19 10 16 0 26 -6 26 -15 0 -10
10 -15 28 -15 42 0 60 -16 27 -24 -29 -7 -29 -29 -1 -34 10 -2 35 -20 56 -41
30 -29 36 -41 29 -54 -7 -11 -6 -17 1 -17 5 0 10 -6 10 -14 0 -7 11 -21 24
-30 14 -9 23 -23 21 -33 -2 -10 -4 -30 -4 -44 -1 -18 -9 -30 -27 -38 -27 -12
-28 -36 -1 -36 9 0 17 -3 17 -7 0 -5 0 -14 0 -22 0 -15 -97 -20 -106 -5 -3 5
-19 9 -35 9 -20 0 -29 4 -26 13 2 7 23 12 53 13 66 1 68 2 54 19 -8 10 -17 12
-23 6 -6 -6 -22 -2 -43 11 -18 11 -39 18 -46 16 -6 -2 -20 4 -30 14 -22 22
-32 23 -52 2 -22 -22 -72 -10 -80 19 -3 12 0 24 6 28 9 6 8 12 -1 23 -11 13
-11 19 0 34 8 9 18 20 22 23 5 3 -5 21 -22 39 -25 28 -27 35 -16 46 16 16 41
18 50 4 4 -6 -5 -10 -20 -10 -15 0 -24 -4 -20 -10 3 -5 17 -10 31 -10 13 0 24
-4 24 -10 0 -5 5 -10 10 -10 6 0 10 7 10 15 0 8 8 15 18 16 10 0 12 3 5 6 -7
2 -15 4 -19 3 -4 -1 -12 9 -18 22 -8 16 -21 23 -42 24 -63 2 -159 16 -177 26
-16 8 -18 6 -15 -9 2 -11 14 -19 31 -21 15 -2 27 -8 27 -13 0 -5 13 -9 29 -9
41 0 47 -16 15 -37 -23 -15 -28 -15 -38 -2 -20 24 -50 36 -76 28 -42 -12 -85
-10 -105 5 -19 14 -19 15 0 36 11 12 31 26 43 31 13 5 26 18 29 29 5 18 11 20
57 15 28 -4 75 -13 103 -21z m-145 -134 c29 0 77 -34 65 -46 -3 -4 -19 -1 -35
5 -25 11 -34 9 -63 -8 -19 -12 -43 -21 -53 -21 -21 0 -56 -27 -56 -43 0 -6 -8
-19 -17 -29 -10 -11 -18 -29 -18 -41 0 -19 -7 -22 -41 -25 -31 -2 -43 1 -48
13 -9 24 3 38 26 32 18 -5 19 -2 15 23 -6 27 12 57 26 44 3 -4 4 9 1 28 -6 31
-3 36 24 47 17 7 39 10 50 7 22 -7 72 12 72 28 0 6 5 5 12 -2 7 -7 25 -12 40
-12z m204 -48 c-22 -5 -30 3 -21 18 5 8 11 7 22 -2 15 -12 14 -13 -1 -16z
m321 -4 c-3 -8 -6 -5 -6 6 -1 11 2 17 5 13 3 -3 4 -12 1 -19z m-912 -108 c-3
-5 -11 -10 -16 -10 -6 0 -7 5 -4 10 3 6 11 10 16 10 6 0 7 -4 4 -10z m25 -36
c0 -8 -5 -12 -10 -9 -6 4 -8 11 -5 16 9 14 15 11 15 -7z m880 -124 c0 -5 -7
-10 -15 -10 -8 0 -15 5 -15 10 0 6 7 10 15 10 8 0 15 -4 15 -10z m-23 -40 c13
0 23 -4 23 -8 0 -14 -23 -32 -41 -32 -9 0 -20 -7 -23 -16 -5 -12 -13 -14 -34
-9 -53 13 -66 45 -17 45 24 0 41 25 24 35 -5 4 -7 11 -4 16 3 5 16 0 27 -11
12 -11 32 -20 45 -20z m663 -285 c0 -8 6 -15 14 -15 24 0 28 -17 12 -55 -16
-37 -42 -50 -31 -15 4 11 0 29 -9 42 -20 28 -21 58 -1 58 8 0 15 -7 15 -15z
m35 -155 c-3 -5 -14 -10 -23 -10 -15 0 -15 2 -2 10 20 13 33 13 25 0z m-725
-10 c0 -5 -7 -10 -15 -10 -8 0 -15 5 -15 10 0 6 7 10 15 10 8 0 15 -4 15 -10z
m116 -15 c10 -8 14 -15 7 -15 -6 0 -15 5 -18 10 -4 6 -10 8 -15 5 -4 -3 -19
-1 -32 4 -22 9 -22 10 8 10 16 1 39 -6 50 -14z m574 -15 c0 -5 -5 -10 -11 -10
-5 0 -7 5 -4 10 3 6 8 10 11 10 2 0 4 -4 4 -10z m-745 -11 c10 -15 -1 -23 -20
-15 -9 3 -13 10 -10 16 8 13 22 13 30 -1z m50 2 c3 -5 1 -12 -5 -16 -5 -3 -10
1 -10 9 0 18 6 21 15 7z m8 -108 c-7 -2 -19 -2 -25 0 -7 3 -2 5 12 5 14 0 19
-2 13 -5z m305 -111 c2 -7 -3 -12 -12 -12 -9 0 -16 7 -16 16 0 17 22 14 28 -4z"/>
<path d="M3545 7220 c-3 -6 5 -10 19 -10 14 0 28 5 31 10 3 6 -5 10 -19 10
-14 0 -28 -4 -31 -10z"/>
<path d="M3480 7210 c0 -5 5 -10 10 -10 6 0 10 5 10 10 0 6 -4 10 -10 10 -5 0
-10 -4 -10 -10z"/>
<path d="M3818 7193 c7 -3 16 -2 19 1 4 3 -2 6 -13 5 -11 0 -14 -3 -6 -6z"/>
<path d="M3838 7123 c6 -2 18 -2 25 0 6 3 1 5 -13 5 -14 0 -19 -2 -12 -5z"/>
<path d="M6670 7601 c0 -9 -17 -10 -60 -5 -41 4 -64 3 -74 -5 -11 -9 -19 -9
-34 0 -27 17 -75 -2 -66 -26 3 -8 10 -15 15 -15 5 0 9 -7 9 -15 0 -8 -4 -15
-10 -15 -5 0 -10 7 -10 16 0 11 -5 14 -16 10 -9 -3 -18 -6 -21 -6 -3 0 1 -7 8
-17 13 -15 10 -16 -35 -10 -27 4 -54 11 -61 17 -12 10 -132 30 -139 23 -9 -10
-155 -16 -318 -14 -105 1 -178 -2 -178 -7 0 -8 -46 -22 -82 -26 -4 -1 -14 -11
-22 -22 -9 -12 -28 -27 -45 -33 -34 -15 -42 -43 -40 -140 1 -39 7 -68 16 -76
8 -9 14 -35 15 -65 0 -27 4 -50 9 -50 5 0 9 8 9 17 0 11 3 14 10 7 7 -7 6 -25
-4 -57 -7 -25 -11 -47 -7 -49 9 -4 41 -76 41 -92 0 -8 7 -27 15 -42 20 -38 20
-103 0 -110 -8 -4 -15 -10 -15 -15 0 -5 7 -9 15 -9 19 0 20 -16 1 -23 -10 -4
-13 -16 -11 -35 2 -17 -6 -49 -21 -77 -16 -33 -24 -65 -24 -100 0 -28 -5 -56
-12 -63 -8 -8 -8 -15 2 -27 9 -11 9 -19 2 -28 -8 -10 -6 -16 9 -25 10 -7 19
-17 19 -23 0 -6 14 -28 30 -49 31 -39 38 -60 20 -60 -18 0 -11 -29 10 -40 11
-6 18 -15 15 -21 -4 -5 5 -13 19 -19 14 -5 47 -31 73 -58 27 -27 73 -66 103
-87 30 -21 63 -49 73 -62 10 -13 25 -23 33 -23 8 0 17 -7 20 -15 3 -8 14 -17
25 -20 10 -4 25 -12 32 -18 29 -27 77 -57 101 -63 14 -3 26 -9 26 -14 0 -12
77 -43 89 -36 6 4 11 14 11 22 0 10 12 14 39 14 27 0 46 7 67 27 16 15 29 30
29 34 0 14 55 50 66 44 6 -4 25 8 42 25 18 18 51 41 74 52 23 10 43 22 45 26
2 4 26 15 53 24 l50 16 -41 1 c-45 1 -80 27 -90 66 -7 29 3 48 22 41 7 -3 16
-1 19 3 2 5 38 12 78 15 62 6 81 4 127 -15 30 -12 74 -22 96 -23 l42 -1 -2 40
c0 22 -5 43 -10 46 -4 4 -3 10 3 13 6 4 11 2 11 -3 0 -6 10 -11 23 -10 l22 0
-22 11 c-13 6 -23 14 -23 18 0 4 -11 5 -25 2 -15 -2 -25 0 -25 7 0 6 8 11 19
11 10 0 24 6 30 14 10 12 9 14 -7 10 -10 -3 -25 2 -33 12 -13 16 -12 17 14 12
21 -4 27 -2 23 8 -3 8 -1 14 4 14 6 0 10 8 10 18 0 26 -48 58 -100 67 -25 4
-57 14 -72 21 -15 8 -36 14 -48 14 -11 0 -28 4 -38 9 -9 5 -36 18 -59 28 -24
10 -41 23 -38 30 2 6 -8 14 -23 18 -31 8 -56 37 -40 46 6 4 11 21 10 37 0 18
5 33 14 36 19 7 18 23 -3 30 -10 3 2 3 27 1 32 -4 41 -2 30 5 -11 7 -11 10 -2
10 7 0 10 5 7 10 -3 6 -22 10 -41 10 -19 0 -34 5 -34 10 0 6 18 10 40 10 29 0
40 4 40 15 0 8 -6 15 -13 15 -20 0 -40 39 -27 55 6 7 8 19 4 28 -3 8 2 27 11
41 9 14 14 30 10 36 -3 5 -1 10 4 10 6 0 11 9 11 21 0 12 4 17 11 14 6 -4 8
-13 5 -21 -3 -8 -1 -14 4 -14 6 0 10 6 10 14 0 7 7 20 16 27 14 11 18 11 29
-4 7 -9 15 -17 19 -17 11 0 6 28 -6 32 -13 5 25 74 39 72 12 -2 33 7 33 15 0
10 -68 33 -79 26 -5 -3 -12 -1 -16 5 -3 5 3 10 14 10 32 0 61 35 61 73 0 53
22 58 179 42 23 -3 57 -15 73 -26 17 -12 39 -22 49 -23 11 -1 24 -8 29 -16 8
-12 10 -12 10 5 0 16 2 17 9 5 6 -8 7 -18 4 -23 -3 -5 5 -19 18 -33 18 -19 20
-27 11 -36 -16 -16 -15 -29 1 -23 7 3 23 -22 42 -67 21 -52 31 -67 33 -51 2
12 12 25 23 28 27 9 24 36 -10 104 -17 33 -28 67 -25 78 5 17 -5 27 -50 53
-31 17 -56 35 -56 40 0 16 -139 163 -194 205 -22 17 -51 42 -65 58 -19 21 -33
27 -68 27 -23 0 -43 4 -43 9 0 5 -11 12 -24 15 -13 3 -31 9 -40 12 -9 3 -16 1
-16 -5z m-80 -37 c0 -7 11 -16 25 -20 14 -3 25 -10 25 -15 0 -5 9 -9 20 -9 29
0 25 -17 -5 -23 -17 -3 -30 1 -38 12 -7 9 -27 23 -44 30 -33 14 -44 36 -20 44
18 6 37 -3 37 -19z m330 -224 c26 -20 21 -24 -17 -14 -13 4 -23 13 -23 20 0
19 10 17 40 -6z m107 -32 c52 -22 97 -78 63 -78 -5 0 -10 4 -10 8 0 5 -28 21
-62 36 -49 21 -60 29 -48 36 19 12 24 12 57 -2z m-311 -265 c-10 -10 -19 5
-10 18 6 11 8 11 12 0 2 -7 1 -15 -2 -18z m-157 -602 c12 -16 21 -34 21 -40 0
-15 36 -32 54 -25 28 11 17 -13 -23 -49 -37 -34 -105 -57 -166 -57 -24 0 -24
0 11 51 39 58 43 82 14 77 -23 -4 -25 3 -11 42 8 26 15 30 45 30 27 0 39 -7
55 -29z m-520 -80 c12 -8 12 -12 -2 -26 -9 -9 -22 -13 -28 -9 -8 4 -9 3 -5 -4
5 -8 2 -10 -8 -6 -15 6 -14 15 7 42 11 14 17 15 36 3z m21 -72 c0 -12 -37 -12
-44 0 -3 4 -3 11 0 14 8 7 44 -4 44 -14z"/>
<path d="M7265 7590 c3 -5 8 -10 11 -10 2 0 4 5 4 10 0 6 -5 10 -11 10 -5 0
-7 -4 -4 -10z"/>
<path d="M3241 7478 c-9 -24 -5 -42 8 -33 13 8 20 44 10 51 -5 3 -13 -5 -18
-18z"/>
<path d="M2366 7330 c-4 -19 -11 -80 -16 -135 -6 -55 -13 -116 -16 -135 -4
-23 -3 -31 3 -25 11 11 48 295 41 316 -2 7 -8 -2 -12 -21z"/>
<path d="M5460 7325 c0 -19 5 -35 10 -35 6 0 10 16 10 35 0 19 -4 35 -10 35
-5 0 -10 -16 -10 -35z"/>
<path d="M6800 7190 c0 -5 5 -10 11 -10 5 0 7 5 4 10 -3 6 -8 10 -11 10 -2 0
-4 -4 -4 -10z"/>
<path d="M5485 7110 c4 -6 11 -8 16 -5 14 9 11 15 -7 15 -8 0 -12 -5 -9 -10z"/>
<path d="M8112 7010 c-1 -47 -5 -96 -8 -110 -5 -19 -4 -22 5 -14 8 7 11 43 8
110 l-3 99 -2 -85z"/>
<path d="M2423 6815 c0 -33 2 -45 4 -27 2 18 2 45 0 60 -2 15 -4 0 -4 -33z"/>
<path d="M2396 6154 c-9 -24 -7 -28 9 -14 17 14 20 30 6 30 -5 0 -12 -7 -15
-16z"/>
<path d="M6596 6135 c-3 -9 0 -15 9 -15 8 0 15 7 15 15 0 8 -4 15 -9 15 -5 0
-11 -7 -15 -15z"/>
<path d="M6918 6133 c-19 -5 -25 -43 -8 -43 10 0 50 36 50 45 0 6 -17 5 -42
-2z"/>
<path d="M3407 6114 c-13 -13 -7 -24 14 -24 11 0 19 5 17 12 -5 14 -22 21 -31
12z"/>
<path d="M4050 6010 c-8 -5 -11 -12 -8 -16 4 -3 14 1 23 10 18 17 9 21 -15 6z"/>
<path d="M4384 5285 c-4 -8 -3 -23 0 -32 6 -15 8 -15 16 -3 13 20 12 50 0 50
-6 0 -13 -7 -16 -15z"/>
<path d="M4715 5244 c-39 -31 -93 -66 -120 -78 -28 -13 -63 -34 -78 -48 -23
-22 -32 -24 -67 -18 -22 4 -48 14 -58 23 -14 13 -20 13 -36 2 -27 -20 -14
-101 23 -141 15 -16 27 -31 27 -34 -1 -13 104 -101 113 -95 6 3 11 1 11 -4 0
-6 7 -11 15 -11 8 0 14 -5 13 -12 -7 -32 168 -31 282 1 110 31 121 29 177 -29
37 -39 61 -54 103 -66 30 -9 60 -20 65 -24 14 -10 133 -46 180 -55 22 -3 60
-13 85 -21 30 -10 63 -13 100 -10 30 4 78 8 106 11 28 2 63 9 78 15 15 5 44
10 64 10 21 0 64 13 97 29 32 16 66 27 74 24 14 -4 14 -4 1 6 -11 7 -12 13 -4
21 9 9 14 9 19 1 4 -8 14 -3 27 14 17 22 19 34 13 90 -4 36 -11 65 -15 65 -4
0 -27 48 -50 108 -70 179 -91 224 -117 250 -11 12 -13 -1 -11 -77 2 -56 -1
-95 -7 -99 -6 -4 -23 -36 -38 -71 -47 -110 -74 -112 -125 -8 -38 80 -181 231
-228 241 -35 8 -94 -17 -94 -40 0 -8 4 -13 8 -10 4 2 14 1 22 -5 13 -8 13 -9
1 -9 -11 0 -12 -3 -4 -11 13 -13 -6 -39 -29 -39 -10 0 -9 -3 2 -11 9 -6 11
-12 5 -15 -6 -2 -35 -20 -64 -39 -51 -34 -71 -39 -56 -16 3 6 27 22 53 36 40
21 43 24 17 20 l-30 -5 29 14 c19 8 25 16 17 20 -7 4 -9 16 -6 26 5 16 -1 20
-32 26 -21 4 -43 14 -49 22 -6 9 -17 17 -25 18 -8 2 -35 11 -61 21 -39 15 -52
15 -80 5 -38 -13 -207 -9 -217 6 -5 8 -45 32 -53 32 -2 0 -35 -25 -73 -56z"/>
<path d="M4357 5193 c-12 -11 -8 -23 8 -23 8 0 15 7 15 15 0 16 -12 20 -23 8z"/>
<path d="M7453 4311 c-7 -10 -9 -22 -6 -25 9 -9 36 -7 52 3 12 8 12 12 2 25
-18 21 -34 20 -48 -3z"/>
<path d="M2920 4189 c0 -13 5 -31 10 -39 7 -11 8 -5 4 20 -8 43 -14 51 -14 19z"/>
<path d="M2947 4073 c-4 -3 -7 -15 -7 -25 0 -27 57 -194 92 -268 17 -36 39
-84 50 -107 18 -39 37 -62 25 -29 -3 7 0 19 6 26 9 10 9 14 0 17 -7 3 -13 18
-13 34 0 29 -15 40 -23 17 -2 -7 -7 6 -11 29 -4 24 -12 45 -17 49 -5 3 -9 18
-9 34 0 23 -4 28 -16 23 -14 -5 -16 -1 -12 25 2 18 2 30 -1 27 -6 -7 -31 52
-31 75 0 26 -25 82 -33 73z"/>
<path d="M2791 2668 c0 -9 -4 -25 -7 -35 -5 -17 -5 -17 6 0 6 10 9 25 7 35 -4
15 -5 15 -6 0z"/>
<path d="M1971 1954 c-40 -28 -61 -90 -61 -182 0 -88 14 -133 49 -152 40 -21
43 -14 35 63 -13 115 -7 176 22 220 39 59 11 90 -45 51z"/>
<path d="M3708 1587 c-16 -6 -28 -18 -28 -27 0 -16 50 -40 85 -40 10 0 29 -12
44 -27 l26 -28 3 28 c2 19 9 27 23 27 16 0 19 7 19 40 0 33 -3 40 -20 40 -11
0 -20 -4 -20 -10 0 -5 -18 -10 -40 -10 -22 0 -40 5 -40 10 0 12 -16 11 -52 -3z"/>
<path d="M1992 1515 c-17 -38 -15 -57 14 -111 79 -148 127 -251 164 -348 22
-61 47 -117 54 -125 7 -9 19 -32 25 -51 7 -22 23 -43 41 -53 17 -10 30 -16 30
-13 0 22 -122 307 -176 412 -62 121 -66 133 -65 190 2 53 -2 66 -24 93 -32 38
-48 39 -63 6z"/>
<path d="M3900 1400 c0 -22 5 -40 10 -40 6 0 10 18 10 40 0 22 -4 40 -10 40
-5 0 -10 -18 -10 -40z"/>
<path d="M4205 1110 c3 -5 13 -10 21 -10 8 0 14 5 14 10 0 6 -9 10 -21 10 -11
0 -17 -4 -14 -10z"/>
</g>
</svg>
